<?xml version="1.0" encoding="UTF-8" standalone="no"?>
<svg
   xml:space="preserve"
   id="svg2"
   width="1456.784"
   height="522.443"
   version="1.1"
   sodipodi:docname="logo.svg"
   inkscape:version="1.3.2 (091e20e, 2023-11-25)"
   xmlns:inkscape="http://www.inkscape.org/namespaces/inkscape"
   xmlns:sodipodi="http://sodipodi.sourceforge.net/DTD/sodipodi-0.dtd"
   xmlns="http://www.w3.org/2000/svg"
   xmlns:svg="http://www.w3.org/2000/svg"><sodipodi:namedview
     id="namedview1"
     pagecolor="#505050"
     bordercolor="#eeeeee"
     borderopacity="1"
     inkscape:showpageshadow="0"
     inkscape:pageopacity="0"
     inkscape:pagecheckerboard="0"
     inkscape:deskcolor="#505050"
     inkscape:zoom="0.42353566"
     inkscape:cx="728.39203"
     inkscape:cy="260.89893"
     inkscape:window-width="1392"
     inkscape:window-height="1212"
     inkscape:window-x="0"
     inkscape:window-y="201"
     inkscape:window-maximized="0"
     inkscape:current-layer="svg2" /><defs
     id="defs6"><linearGradient
       id="f"
       x2="1"
       gradientTransform="rotate(38 -93.475 512.518)scale(48.14105)"
       gradientUnits="userSpaceOnUse"><stop
         id="stop12"
         offset="0"
         stop-color="#0c542a" /><stop
         id="stop14"
         offset=".215"
         stop-color="#0c542a" /><stop
         id="stop16"
         offset=".58"
         stop-color="#25af64" /><stop
         id="stop18"
         offset=".847"
         stop-color="#25af64" /><stop
         id="stop20"
         offset="1"
         stop-color="#25af64" /></linearGradient><clipPath
       id="e"><path
         id="path9"
         d="m280.17 136.33-21.5-21.584h61v21.584z" /></clipPath></defs><style
     id="style22"
     type="text/css">.st0{fill:#24af63}.st1{font-family:&quot;Maven Pro&quot;;font-weight:&quot;bold&quot;}.st2{font-size:209.8672px}.st4{fill:#ecdc86}.st7{fill:#396e35}</style><linearGradient
     id="d"
     x1="295.46"
     x2="333.34"
     y1="150.75"
     y2="180.35"
     gradientUnits="userSpaceOnUse"><stop
       id="stop41"
       offset=".215"
       stop-color="#0D552B" /><stop
       id="stop43"
       offset=".311"
       stop-color="#176837" /><stop
       id="stop45"
       offset=".461"
       stop-color="#1F8448" /><stop
       id="stop47"
       offset=".604"
       stop-color="#239A56" /><stop
       id="stop49"
       offset=".736"
       stop-color="#24A860" /><stop
       id="stop51"
       offset=".847"
       stop-color="#25AF64" /></linearGradient><g
     id="layer2"
     style="display:inline"
     transform="translate(5.376)"><g
       id="g4209"><path
         id="path24"
         d="M1084.1 163.75v3.6c-.1 0-.1 0-.2.1l-1.8-1.5c-4-3.4-8.3-6.4-13.1-8.8-.8-.4-1.6-.9-2.5-1.1-.1-.1-.2-.2-.3-.2-1.8-.7-3.6-1.3-5.5-1.8-4.1-.9-8.2-1-12.3-.2-5.3 1.1-10 3.4-14.5 6.4-4.4 3-8.4 6.5-12.1 10.2-.7.7-.7.7-1.1-.2-2-4.1-4.2-8.1-6.9-11.8-2.1-2.8-4.4-5.4-7.4-7.2-3-1.9-6.3-2.6-9.8-1.7-4.3 1-7.8 3.6-11.1 6.4-2 1.5-3.8 3.3-5.6 5-1.7 1.5-3.3 3-5 4.5-.3.3-.5.3-.8 0-1.7-1.8-3.5-3.4-5.6-4.5-3.1-1.7-6.3-1.9-9.6-.8-2.8.9-5.2 2.4-7.7 4-1 .6-1.9 1.3-2.9 1.8v-.2c.1-.2.1-.4.1-.6.2-4.4.5-8.9 1.2-13.3 1-6.1 2.5-12 5.2-17.5 2-4.1 4.7-7.9 8.1-11 4.5-4.1 9.8-6.7 15.6-8.3 6.3-1.8 12.7-2.6 19.2-2.9 2.6-.1 5.1-.2 7.7-.3 1.3.5 2.6.8 3.9 1.2 1.9.6 3.8 1.2 5.7 1.7 1 .4 1.9.7 2.9 1.1 3.7 1.3 7.3 3 10.4 5.5.8.6 1.6 1.3 2.4 2-.2-.6-.4-1.1-.6-1.7-1.4-3.7-3.5-6.7-6.9-8.8-1.4-.9-2.9-1.5-4.4-2.3.1 0 .3 0 .4-.1 4.5-.8 9.1-1.2 13.7-1.4 3.9-.2 7.9-.1 11.8.3 4.6.5 9.1 1.4 13.4 3 6.4 2.4 11.9 6.1 16.2 11.5 3.7 4.7 6.1 10.1 7.6 15.9 1.5 5.7 2.1 11.6 2.3 17.5-.1 2.1-.1 4.3-.1 6.5"
         class="st0"
         style="fill:#24af63" /><path
         id="path26"
         d="M1084.1 157.15h.1v6.6h-.1z"
         class="st4"
         style="fill:#ecdc86" /><path
         id="path28"
         d="M1047.6 62.25v.1h-4.5v-.1z"
         style="fill:#a0918f" /><path
         id="path30"
         d="M1050.5 250.65c2.5-1 4.9-2.3 7.3-3.6 2.8-1.7 5.4-3.5 8-5.4 2.2-1.6 4.3-3.3 6.4-5.1l3.6-3c.2-.2.2-.1.3.1.4 1.6.7 3.3 1.1 5 .5 2.3.8 4.6 1.1 6.9.3 2.7.4 5.3.2 8-.2 3.3-.8 6.6-2 9.7q-1.05 2.85-2.7 5.4c-1.4 2.2-3 4.2-5 5.9-2.3 2.1-4.9 3.9-7.7 5.4-3.7 2.1-7.7 3.6-11.8 4.8-3.9 1.2-7.9 2-11.9 2.7-1.1.2-2.2.4-3.3.4-2.3-.1-4.6-.6-6.8-1.4-3.3-1.3-6.2-3.3-9.5-4.8-1.8-.8-3.6-1.4-5.5-1.5-2.5-.2-4.6.7-6.4 2.4l-3.9 3.9c-2.2 2.2-4.8 3.7-7.9 4.2-2.1.3-4.1.2-6.2-.1-2.9-.4-5.7-1.1-8.4-1.9-4-1.3-7.7-3.1-11.1-5.7-3.2-2.4-5.7-5.4-7.8-8.8-2.1-3.5-3.3-7.2-4.2-11.1-.4-1.7-.6-3.5-.8-5.2-.3-2.5-.4-4.9-.3-7.4.1-3.5.4-6.9.9-10.4.4.4.8.7 1.1 1 2.2 2 4.7 3.8 7.3 5.4 2.9 1.7 6.1 3.1 9.4 4 2.2.6 4.5 1 6.8 1.1 1.9.2 3.8.2 5.7.1 2.2-.1 4.5-.3 6.7-.9.3 0 .6 0 .8-.1q3-.6 6-1.5c2.3-.7 4.5-1.4 6.7-2.2 2.1-.8 4.3-1.7 6.4-2.6.6-.3 1-.2 1.5.2 3.5 2.7 7.3 5 11.4 6.7 4.6 1.8 9.3 2.7 14.2 2.3 3.6-.7 7-1.6 10.3-2.9"
         class="st0"
         style="fill:#24af63" /><path
         id="path32"
         d="M1050.5 250.65c-3.3 1.3-6.7 2.2-10.2 2.5-4.9.4-9.6-.5-14.2-2.3-4.1-1.6-7.9-3.9-11.4-6.7-.5-.4-.9-.5-1.5-.2-2.1.9-4.2 1.8-6.4 2.6s-4.4 1.6-6.7 2.2c-2 .6-4 1-6 1.5-.3.1-.6.1-.8.1l2.1-2.4c2.8-3.2 4.8-6.9 5.9-11.1 1.6-5.6 3.2-11.3 4.6-17 1-4.2 1.8-8.4 2.4-12.7.4-3.1 1-14.9.8-17.7-.5-8.6-2.4-16.8-5.9-24.7-2.1-4.7-5.7-7.9-10.7-9.2-2.2-.6-4.4-.4-6.5.3-.2.1-.3.2-.5.1 3.3-2.8 6.7-5.4 11.1-6.4 3.5-.8 6.8-.2 9.8 1.7s5.3 4.4 7.4 7.2c2.7 3.7 4.9 7.7 6.9 11.8.4.9.4.9 1.1.2 3.7-3.8 7.7-7.3 12.1-10.2 4.4-3 9.2-5.3 14.5-6.4 4.1-.8 8.2-.7 12.3.2 1.9.4 3.7 1 5.5 1.8.1.1.3.1.3.2-5.3.1-9.8 2.1-13.9 5.2-2 1.5-3.8 3.2-5.2 5.3-1.1 1.7-2.1 3.6-2.9 5.5-1.8 3.8-3.3 7.8-4.4 11.9-.9 3.5-1.5 7.1-1.8 10.7-.2 2.8-.3 5.6-.2 8.4.1 3.4.5 6.8.9 10.3.7 5.7 1.7 11.4 2.7 17.1.5 3.1.9 6.3 1.5 9.5.7 4.6 3.3 8 7 10.6 0-.1.2 0 .3.1"
         class="st4"
         style="fill:#ecdc86" /><path
         id="path34"
         d="M1043.1 62.35h4.5c3.6.2 7.2.8 10.6 2 2.7.9 3.3 2.7 1.7 5-1.1 1.6-2.7 2.8-4.4 3.9-2.1 1.4-4.4 2.6-6.9 3.5-2.5 1-4.9 0-6.5-2.5-.5-.8-.9-1.6-1.1-2.5-.1-.3-.2-.4-.5-.4-5.6-1-10.6.3-14.7 4.3-3.4 3.2-5.4 7.3-6.8 11.7-1.3 4-1.9 8-2.1 12.2-.2 3.7.1 7.4.6 11 .1.6.3 1.2.3 1.9.1.8-.2 1.5-.8 1.9-.7.5-1.5.4-2.3.4-1.9-.6-3.8-1.2-5.7-1.7v-1.3c0-2 0-3.9.1-5.9.4-7.7 1.6-15.3 4.6-22.5 2.2-5.4 5.4-10.1 9.9-13.8 3.7-3.1 7.9-5.1 12.6-6.2 2.4-.6 4.6-.9 6.9-1"
         style="fill:#3f2b29" /><path
         id="path36"
         d="M1014.8 114.65c.8 0 1.6.1 2.3-.4s.9-1.2.8-1.9c-.1-.6-.2-1.3-.3-1.9.4 0 .7-.1 1.1-.1 1.4.8 2.9 1.5 4.4 2.3 3.4 2.1 5.5 5.1 6.9 8.8.2.6.4 1.1.6 1.7-.8-.7-1.6-1.4-2.4-2-3.2-2.4-6.7-4.1-10.4-5.5-1.1-.3-2-.6-3-1"
         class="st7"
         style="fill:#396e35" /><path
         id="path38"
         d="M1009.1 111.65v1.3c-1.3-.4-2.6-.7-3.9-1.2 1.4-.1 2.7-.1 3.9-.1"
         class="st7"
         style="fill:#396e35" /></g></g><g
     id="layer3"
     style="display:inline"
     transform="translate(5.376)"><path
       style="font-weight:700;font-size:209.867px;font-family:'Maven Pro';fill:#24af63"
       d="m 62.750234,144.07648 q 3.987476,-2.09867 10.49336,-4.19734 6.505883,-2.30854 14.27097,-3.98748 7.765086,-1.67894 15.530176,-2.72827 7.97495,-1.04934 14.6907,-1.04934 14.27097,0 24.3446,3.77761 10.07362,3.56774 15.3203,11.75256 5.45655,8.18482 5.45655,22.24593 V 241.245 h -31.27021 v -65.05884 q 0,-3.98747 -1.25921,-7.34535 -1.04933,-3.35788 -3.35787,-5.66641 -2.30854,-2.51841 -6.29602,-3.77761 -3.98748,-1.46907 -9.65389,-1.46907 -4.82695,0 -9.65389,1.2592 -4.826947,1.04933 -7.345353,2.30854 V 241.245 H 62.750234 Z M 198.53415,241.245 v -82.26795 h -15.74004 v -23.92486 h 15.94991 v -2.51841 q 0,-10.28349 2.09867,-17.62884 2.09868,-7.34535 5.87629,-12.1723 3.77761,-5.036812 8.81442,-7.765085 5.03681,-2.728274 11.12296,-3.77761 6.08615,-1.259203 12.59203,-1.259203 3.35788,0 7.34535,0.629602 3.98748,0.419734 6.50589,1.46907 v 27.702466 q -1.88881,-2.30853 -4.19735,-3.56774 -2.30854,-1.2592 -6.29601,-1.2592 -2.72828,0 -5.03682,0.6296 -2.30853,0.6296 -3.98747,2.09867 -1.67894,1.46907 -2.72828,4.19735 -0.83946,2.72827 -0.83946,6.92561 v 6.29602 h 23.08539 v 23.92486 H 229.80437 V 241.245 Z m 77.44082,-53.51614 v -21.61632 h 64.00949 v 21.61632 z"
       id="text53"
       aria-label="nf-" /><path
       style="font-weight:700;font-size:209.867px;font-family:'Maven Pro';fill:#fafafa"
       d="m 420.73075,243.97327 q -11.33283,0 -21.40645,-3.35788 -10.07363,-3.35787 -17.83871,-10.07362 -7.76509,-6.71575 -12.1723,-16.99925 -4.40721,-10.28349 -4.40721,-23.92486 0,-14.48083 4.19734,-25.18406 4.19735,-10.9131 11.5427,-18.04858 7.55522,-7.13549 17.62884,-10.70323 10.07363,-3.56774 22.24593,-3.56774 8.60455,0 17.62884,1.8888 9.23416,1.67894 16.15978,4.82695 v 26.863 q -7.34536,-3.35787 -14.48084,-5.45655 -6.92562,-2.30853 -14.27097,-2.30853 -13.22163,0 -21.40646,6.71575 -7.97495,6.50588 -7.97495,21.40645 0,15.74004 7.13549,23.71499 7.13548,7.97496 23.71499,7.97496 7.76509,0 14.90057,-2.72828 7.34535,-2.72827 12.59203,-5.66641 v 26.65314 q -7.34535,3.7776 -15.3203,5.87628 -7.97496,2.09867 -18.46832,2.09867 z m 103.46471,0.41973 q -26.86301,0 -40.50437,-14.27097 -13.4315,-14.48083 -13.4315,-42.39317 0,-30.01101 13.64136,-43.02278 13.85124,-13.22163 40.29451,-13.22163 17.83871,0 29.80114,6.08615 12.1723,5.87628 18.25845,18.25844 6.29601,12.38217 6.29601,31.89982 0,27.91234 -14.0611,42.39317 -14.0611,14.27097 -40.2945,14.27097 z m 0,-24.97419 q 7.76508,0 12.8019,-3.56775 5.24668,-3.77761 7.76508,-10.70322 2.72828,-7.13549 2.72828,-17.41898 0,-11.75256 -2.72828,-18.46832 -2.5184,-6.92561 -7.76508,-9.86375 -5.24668,-3.14801 -12.8019,-3.14801 -7.97496,0 -13.01177,3.14801 -5.03681,3.148 -7.55522,10.07362 -2.30854,6.71575 -2.30854,18.25845 0,15.94991 5.45655,23.92486 5.66641,7.76509 17.41898,7.76509 z m 75.97195,21.82619 v -95.06985 q 2.93814,-2.5184 10.49336,-5.66641 7.55522,-3.35788 17.20911,-5.87628 9.86376,-2.72828 19.72752,-2.72828 9.86376,0 15.53017,1.46907 5.66642,1.46907 8.60456,3.77761 v 22.87553 q -3.56774,-0.83947 -9.02429,-1.25921 -5.45655,-0.41973 -11.33283,-0.41973 -5.87628,-0.20987 -11.12296,0 -5.24668,0.20987 -8.81442,0.83947 V 241.245 Z m 134.31486,3.148 q -15.94991,0 -28.33208,-6.50588 -12.17229,-6.71575 -19.09791,-18.88805 -6.71575,-12.38216 -6.71575,-29.38141 0,-27.70247 13.64137,-42.81291 13.85123,-15.3203 39.45503,-15.3203 17.62885,0 28.33207,7.55522 10.9131,7.55522 15.94991,22.03605 5.03681,14.48084 4.82695,35.25769 h -80.79888 l -3.35787,-19.93738 h 58.34308 l -4.61708,9.86376 q -0.20987,-16.99925 -4.82694,-23.92486 -4.61708,-6.92562 -15.11044,-6.92562 -5.87628,0 -10.70323,2.93814 -4.61708,2.93814 -7.34535,9.86376 -2.51841,6.71575 -2.51841,18.67818 0,15.11044 7.13549,23.29526 7.34535,8.18482 23.29526,8.18482 5.87628,0 11.54269,-1.2592 5.87628,-1.46907 10.9131,-3.35788 5.03681,-1.8888 8.60455,-3.35787 v 26.863 q -7.55522,3.14801 -16.99924,5.03681 -9.23416,2.09867 -21.61632,2.09867 z M 787.57874,261.81198 864.6,82.58539 h 22.45579 l -77.23113,179.22659 z"
       id="text69"
       aria-label="core/" /><path
       style="font-weight:700;font-size:209.867px;font-family:'Maven Pro';fill:#fafafa"
       d="M 61.701234,457.04501 V 308.87877 h 31.48008 v 62.96016 L 79.95968,364.70344 q 8.394689,-7.34535 19.727518,-11.96243 11.542692,-4.82694 23.505122,-4.82694 11.5427,0 20.35712,3.77761 8.81443,3.77761 13.64137,12.38216 5.03681,8.39469 5.03681,23.29526 v 69.67591 h -31.27021 v -63.17002 q 0,-10.49336 -5.24668,-15.11044 -5.03681,-4.82695 -14.90057,-4.82695 -5.03681,0 -10.07363,1.46907 -4.826942,1.2592 -7.555216,3.35788 l -0.419734,78.28046 z m 169.152966,3.14801 q -9.65389,0 -18.25844,-1.8888 -8.39469,-1.67894 -14.90057,-5.66642 -6.29602,-4.19734 -9.86376,-11.12296 -3.56774,-7.13548 -3.56774,-17.62884 0,-9.86376 3.98747,-17.20912 4.19735,-7.34535 12.59203,-11.33282 8.39469,-3.98748 21.19659,-3.98748 7.13549,0 13.85124,1.46907 6.71575,1.46907 11.96243,3.98748 5.45655,2.5184 8.60455,5.45654 l 1.25921,15.11044 q -4.19735,-2.5184 -10.07363,-3.98747 -5.87628,-1.46908 -12.59203,-1.46908 -10.28349,0 -15.11044,3.14801 -4.61708,2.93814 -4.61708,9.44403 0,3.98747 2.30854,7.13548 2.30854,3.14801 6.08615,4.82695 3.98748,1.67894 8.18482,1.67894 10.70323,0 14.90057,-1.46908 4.40721,-1.46907 4.40721,-5.87628 v -39.0353 q 0,-9.65389 -6.29601,-13.85123 -6.08615,-4.40721 -17.41898,-4.40721 -9.23416,0 -18.67818,3.35787 -9.23416,3.14801 -15.11044,7.76509 v -27.70247 q 5.45655,-3.35788 16.78938,-6.29602 11.54269,-2.93814 25.81366,-2.93814 5.03682,0 11.12296,0.83947 6.08615,0.83947 12.1723,3.14801 6.08615,2.09867 11.12296,6.29601 5.24668,4.19735 8.39469,10.70323 3.14801,6.50588 3.14801,16.15978 l -0.20987,50.15826 q 0,9.02429 -6.08615,14.6907 -6.08615,5.45655 -17.62884,7.97496 -11.33283,2.5184 -27.49261,2.5184 z m 128.85857,-0.41973 q -11.33283,0 -21.40645,-3.35788 -10.07363,-3.35787 -17.83872,-10.07362 -7.76508,-6.71575 -12.17229,-16.99925 -4.40721,-10.28349 -4.40721,-23.92486 0,-14.48084 4.19734,-25.18406 4.19734,-10.9131 11.5427,-18.04858 7.55521,-7.13549 17.62884,-10.70323 10.07363,-3.56774 22.24592,-3.56774 8.60456,0 17.62885,1.8888 9.23416,1.67894 16.15977,4.82695 v 26.863 q -7.34535,-3.35787 -14.48083,-5.45655 -6.92562,-2.30854 -14.27097,-2.30854 -13.22164,0 -21.40646,6.71575 -7.97495,6.50589 -7.97495,21.40646 0,15.74004 7.13548,23.71499 7.13549,7.97496 23.715,7.97496 7.76508,0 14.90057,-2.72828 7.34535,-2.72827 12.59203,-5.66641 v 26.65313 q -7.34535,3.77761 -15.3203,5.87629 -7.97496,2.09867 -18.46832,2.09867 z m 79.95959,-61.28123 39.03529,-47.63985 h 37.98597 l -58.97269,62.33056 z m 6.71575,58.55295 H 415.32776 V 310.76757 h 31.48008 z m 16.99924,-72.19431 56.03454,72.19431 h -39.6649 l -38.61556,-50.99773 z m 116.26628,75.34232 q -9.65389,0 -18.25845,-1.8888 -8.39469,-1.67894 -14.90057,-5.66642 -6.29602,-4.19734 -9.86376,-11.12296 -3.56774,-7.13548 -3.56774,-17.62884 0,-9.86376 3.98748,-17.20912 4.19734,-7.34535 12.59203,-11.33282 8.39469,-3.98748 21.19659,-3.98748 7.13548,0 13.85123,1.46907 6.71575,1.46907 11.96243,3.98748 5.45655,2.5184 8.60456,5.45654 l 1.2592,15.11044 q -4.19734,-2.5184 -10.07363,-3.98747 -5.87628,-1.46908 -12.59203,-1.46908 -10.28349,0 -15.11044,3.14801 -4.61707,2.93814 -4.61707,9.44403 0,3.98747 2.30853,7.13548 2.30854,3.14801 6.08615,4.82695 3.98748,1.67894 8.18482,1.67894 10.70323,0 14.90058,-1.46908 4.40721,-1.46907 4.40721,-5.87628 v -39.0353 q 0,-9.65389 -6.29602,-13.85123 -6.08615,-4.40721 -17.41898,-4.40721 -9.23415,0 -18.67818,3.35787 -9.23416,3.14801 -15.11044,7.76509 v -27.70247 q 5.45655,-3.35788 16.78938,-6.29602 11.5427,-2.93814 25.81367,-2.93814 5.03681,0 11.12296,0.83947 6.08615,0.83947 12.17229,3.14801 6.08615,2.09867 11.12297,6.29601 5.24668,4.19735 8.39468,10.70323 3.14801,6.50588 3.14801,16.15978 l -0.20986,50.15826 q 0,9.02429 -6.08615,14.6907 -6.08615,5.45655 -17.62885,7.97496 -11.33283,2.5184 -27.4926,2.5184 z m 122.56256,1.04934 q -18.46831,0 -27.4926,-8.60456 -9.02429,-8.81442 -9.02429,-24.76433 v -53.0964 h -15.53017 v -23.92486 h 15.53017 v -29.17154 h 32.73928 v 29.17154 h 23.29526 v 23.92486 H 698.43858 V 423.886 q 0,5.45654 2.30854,8.18482 2.30854,2.5184 7.76509,2.5184 3.14801,0 6.92562,-1.2592 3.77761,-1.2592 6.29601,-3.14801 v 26.863 q -4.40721,2.30854 -9.65389,3.14801 -5.03681,1.04934 -9.86376,1.04934 z m 43.23266,-4.19735 V 308.87877 h 31.48008 v 62.96016 l -13.22163,-7.13549 q 8.39469,-7.34535 19.72752,-11.96243 11.54269,-4.82694 23.50512,-4.82694 11.5427,0 20.35712,3.77761 8.81443,3.77761 13.64137,12.38216 5.03681,8.39469 5.03681,23.29526 v 69.67591 h -31.27021 v -63.17002 q 0,-10.49336 -5.24668,-15.11044 -5.03681,-4.82695 -14.90057,-4.82695 -5.03681,0 -10.07363,1.46907 -4.82694,1.2592 -7.55522,3.35788 l -0.41973,78.28046 z m 176.07861,3.14801 q -26.863,0 -40.50437,-14.27097 -13.4315,-14.48084 -13.4315,-42.39317 0,-30.01101 13.64136,-43.02278 13.85124,-13.22163 40.29451,-13.22163 17.83871,0 29.80114,6.08615 12.1723,5.87628 18.25845,18.25844 6.29601,12.38217 6.29601,31.89982 0,27.91233 -14.0611,42.39317 -14.0611,14.27097 -40.2945,14.27097 z m 0,-24.9742 q 7.76508,0 12.8019,-3.56774 5.24668,-3.77761 7.76508,-10.70323 2.72828,-7.13548 2.72828,-17.41897 0,-11.75257 -2.72828,-18.46832 -2.5184,-6.92561 -7.76508,-9.86376 -5.24668,-3.148 -12.8019,-3.148 -7.97496,0 -13.01177,3.148 -5.03681,3.14801 -7.55522,10.07363 -2.30854,6.71575 -2.30854,18.25845 0,15.9499 5.45655,23.92486 5.66641,7.76508 17.41898,7.76508 z m 75.97193,-75.34232 q 3.98751,-2.09867 10.49341,-4.19735 6.5058,-2.30853 14.2709,-3.98747 7.7651,-1.67894 15.5302,-2.72828 7.9749,-1.04933 14.6907,-1.04933 14.271,0 24.3446,3.77761 10.0736,3.56774 15.3203,11.75256 5.4565,8.18482 5.4565,22.24592 v 71.35485 h -31.2702 v -65.05883 q 0,-3.98748 -1.2592,-7.34535 -1.0493,-3.35788 -3.3578,-5.66642 -2.3086,-2.5184 -6.2961,-3.77761 -3.9874,-1.46907 -9.6539,-1.46907 -4.8269,0 -9.6538,1.25921 -4.827,1.04933 -7.3454,2.30854 v 79.74953 h -31.27021 z"
       id="text59"
       aria-label="hackathon" /><path
       id="path67"
       d="m300.437 166.116-21.532 21.616h61.092v-21.617z"
       style="fill:url(#f)" /></g></svg>
